<?xml version="1.0" encoding="UTF-8"?>
<svg id="Layer_1" data-name="Layer 1" xmlns="http://www.w3.org/2000/svg" xmlns:xlink="http://www.w3.org/1999/xlink" viewBox="0 0 800 800">
  <defs>
    <style>
      .cls-1, .cls-2 {
        fill: #fff;
      }

      .cls-3 {
        fill: #4dcdff;
      }

      .cls-4 {
        fill: #e1d9cb;
      }

      .cls-5 {
        clip-path: url(#clippath);
      }

      .cls-6 {
        fill: none;
      }

      .cls-7 {
        fill: #818689;
      }

      .cls-8 {
        fill: #231f20;
      }

      .cls-2 {
        isolation: isolate;
        opacity: .2;
      }
    </style>
    <clipPath id="clippath">
      <circle class="cls-6" cx="400" cy="400" r="400"/>
    </clipPath>
  </defs>
  <circle class="cls-3" cx="400" cy="400" r="400"/>
  <g class="cls-5">
    <g>
      <g>
        <path class="cls-7" d="M580.82,127.59c-38.44,1.13-63.32,24.87-63.32,24.87,0,0-13.47-12.66-48.62-27.13-23.44-9.65-47.29-13.31-69.32-13.28v-.02c-.4,0-.82,.01-1.22,.01-.4,0-.82-.02-1.22-.01v.02c-22.03-.04-45.88,3.63-69.32,13.28-35.14,14.47-48.62,27.13-48.62,27.13,0,0-24.87-23.74-63.32-24.87-38.44-1.13-49.75,3.39-48.62,26,1.13,22.61,4.52,72.36,19.22,99.5,14.7,27.14,18.09,32.79,30.53,27.14,12.44-5.66,40.71-38.44,50.88-53.14s12.44-24.87,12.44-24.87c0,0,21.48,48.62,22.61,83.67,1.13,35.05,0,65.58-4.52,87.06-4.52,21.48-52.5,122.33-67.84,163.95-22.02,59.75-34.98,172.69-29.4,255.53,6.54,96.98,22.09,184.11,40.71,240.83,21.1,64.29,29.4,83.67,36.18,91.58,6.79,7.92,76.89,13.57,100.63,9.05,7.08-1.35,13.72-2.61,19.66-4.08,5.94,1.48,12.58,2.74,19.66,4.08,23.74,4.52,93.85-1.13,100.63-9.05,6.79-7.92,15.08-27.29,36.18-91.58,18.62-56.72,34.17-143.85,40.71-240.83,5.58-82.85-7.37-195.78-29.4-255.53-15.34-41.62-63.32-142.47-67.84-163.95-4.52-21.48-5.66-52.01-4.52-87.06s22.61-83.67,22.61-83.67c0,0,2.26,10.18,12.44,24.87,10.18,14.7,38.44,47.49,50.88,53.14,12.44,5.65,15.83,0,30.53-27.14,14.7-27.13,18.09-76.89,19.22-99.5,1.13-22.61-10.18-27.13-48.63-26Zm-167.34,802.78c-1.87,29.51-7.85,53.8-15.14,73.71-7.29-19.91-13.27-44.2-15.14-73.71-4.58-72.36-3.9-126.02,15.14-140.84,19.03,14.82,19.72,68.48,15.14,140.84Z"/>
        <path class="cls-4" d="M333.66,392.45c-16.68,.04-33.02-.85-49.62-.85-24.31,0-49.37-2.44-63.56,20.54-18.91,30.63-20.43,78.1-16.93,112.64,2.08,20.51,.5,42.1,3.43,62.41,2.3,15.93,14.54,29.93,31.57,30.87,19.58,1.08,29.13-25.48,46.38-31.48,13.45-4.67,21.89,8.42,29.3,17.56,9.19,11.35,25.87,23.71,40.92,13.92,14.69-9.56,20.2-31.35,41.26-29.75,20.2,1.53,26.81,24.38,46.45,28.05,28.61,5.34,30.01-25.93,51.91-33.15,20.32-6.7,30,22.08,45.23,29.36,20.17,9.64,41.54,2.98,49.85-18.75,6.14-16.06,4.61-36.53,4.6-53.34-.02-18.42-1.24-36.34-2.75-54.65-1.95-23.67,2.08-48.14-11.66-68.78-18.3-27.5-57.06-29.09-86.86-26.14-27.81,2.75-141.08,1.5-159.51,1.55Z"/>
        <path class="cls-4" d="M406.03,631.28c-24.2-.78-40.41,13.25-52.76,22.56-14.96,11.29-27.7,28.55-38.1,44.01-7.14,10.61-42.4,68.49-4.48,60.96,18.8-3.73,39.83-30.12,50.66-44.79,6.57,13.42,10.76,27.51,26.69,33.33,19.39,7.07,36.49-13.41,39.43-31.01,8.63,14.9,72.87,66.01,75.67,24.55,2.5-37.09-35.4-72.13-60.21-94.73-10.14-9.23-24.19-14.36-36.91-14.87Z"/>
        <g>
          <path class="cls-4" d="M321.18,197.83c-16.01,6.78-19.5,28.91-19.5,44.12,0,7.61,2.44,41.34,15.61,35.63,6.68-2.89,7.75-17.67,7.45-23.71,5.56,5.27,11.56,18.12,21.45,16.9,9.23-1.14,11.01-14.22,11.62-21.8,6.72,11.78,26.11,18.53,32.94,2.9,4.93-11.28,2.05-29.54-4.28-39.62-13.24-21.08-44.9-23.8-65.29-14.42Z"/>
          <path class="cls-4" d="M475.51,197.83c16.01,6.78,19.5,28.91,19.5,44.12,0,7.61-2.44,41.34-15.61,35.63-6.68-2.89-7.75-17.67-7.45-23.71-5.56,5.27-11.56,18.12-21.45,16.9-9.23-1.14-11.01-14.22-11.62-21.8-6.72,11.78-26.11,18.53-32.94,2.9-4.93-11.28-2.05-29.54,4.28-39.62,13.24-21.08,44.9-23.8,65.29-14.42Z"/>
        </g>
        <g>
          <path class="cls-8" d="M414.79,377.34c-18.26,0-54.1-3.45-69.3,8.6-19.86,15.75,4.22,41.79,13.09,55,8.67,12.91,28.84,36.78,47.34,30.35,19.92-6.93,42.45-38.73,50.08-57.46,13.59-33.39-24.67-37.41-41.2-36.49Z"/>
          <ellipse class="cls-1" cx="397.22" cy="396.69" rx="31.38" ry="9.33"/>
        </g>
        <g>
          <g>
            <circle class="cls-8" cx="361.6" cy="321.22" r="20.9" transform="translate(-13.39 626.7) rotate(-80.78)"/>
            <circle class="cls-1" cx="361.6" cy="321.22" r="6.57" transform="translate(-13.39 626.7) rotate(-80.78)"/>
          </g>
          <g>
            <circle class="cls-8" cx="435.09" cy="320.36" r="20.9"/>
            <circle class="cls-1" cx="435.09" cy="320.36" r="6.57"/>
          </g>
        </g>
      </g>
      <path class="cls-2" d="M400,999.31c-.55,1.6-1.09,3.22-1.66,4.77-7.29-19.91-13.27-44.2-15.14-73.71-4.58-72.36-3.9-126.02,15.14-140.84,.59,.46,1.1,1.06,1.66,1.59V112.06c-.14,0-.29,0-.44,0v-.02c-.4,0-.82,.01-1.22,.01-.4,0-.82-.02-1.22-.01v.02c-22.03-.04-45.88,3.63-69.32,13.28-35.14,14.47-48.62,27.13-48.62,27.13,0,0-24.87-23.74-63.32-24.87-38.44-1.13-49.75,3.39-48.62,26,1.13,22.61,4.52,72.36,19.22,99.5,14.7,27.14,18.09,32.79,30.53,27.14,12.44-5.66,40.71-38.44,50.88-53.14s12.44-24.87,12.44-24.87c0,0,21.48,48.62,22.61,83.67,1.13,35.05,0,65.58-4.52,87.06-.82,3.9-3.09,10.44-6.32,18.75-2.68-.04-5.36-.09-8.05-.09-24.31,0-49.37-2.44-63.56,20.54-18.91,30.63-20.43,78.1-16.93,112.64,2.08,20.51,.5,42.1,3.43,62.41,.85,5.87,3.06,11.48,6.35,16.27-10.93,58.8-16.06,131.19-12.16,188.96,6.54,96.98,22.09,184.11,40.71,240.83,21.1,64.29,29.4,83.67,36.18,91.58,6.79,7.92,76.89,13.57,100.63,9.05,7.08-1.35,13.72-2.61,19.66-4.08,.52,.13,1.12,.24,1.66,.37v-130.86h0Z"/>
    </g>
  </g>
</svg>