<?xml version="1.0" encoding="UTF-8"?>
<svg id="Layer_1" data-name="Layer 1" xmlns="http://www.w3.org/2000/svg" xmlns:xlink="http://www.w3.org/1999/xlink" viewBox="0 0 800 800">
  <defs>
    <style>
      .cls-1 {
        fill: #ffac45;
      }

      .cls-2, .cls-3 {
        fill: #fff;
      }

      .cls-4 {
        fill: #b85e26;
      }

      .cls-5 {
        fill: #4dcdff;
      }

      .cls-6 {
        clip-path: url(#clippath);
      }

      .cls-7, .cls-8 {
        fill: none;
      }

      .cls-9 {
        fill: #ffc57d;
      }

      .cls-10 {
        fill: #231f20;
      }

      .cls-3 {
        isolation: isolate;
        opacity: .2;
      }

      .cls-8 {
        stroke: #b85e26;
        stroke-linecap: round;
        stroke-linejoin: round;
        stroke-width: 4.79px;
      }
    </style>
    <clipPath id="clippath">
      <circle class="cls-7" cx="400" cy="400" r="400"/>
    </clipPath>
  </defs>
  <circle class="cls-5" cx="400" cy="400" r="400"/>
  <g class="cls-6">
    <g>
      <g>
        <g>
          <ellipse class="cls-4" cx="559.62" cy="200.73" rx="73.21" ry="74.92"/>
          <ellipse class="cls-2" cx="550.54" cy="212.63" rx="41.61" ry="42.58"/>
        </g>
        <g>
          <ellipse class="cls-4" cx="231.44" cy="200.73" rx="73.21" ry="74.92"/>
          <ellipse class="cls-2" cx="240.53" cy="212.63" rx="41.61" ry="42.58"/>
        </g>
        <path class="cls-1" d="M606.63,726.17c-1.78-38.1-4.53-62.34-9.58-100.28-4.67-35.05-24.98-79.95-43.11-108.58-12.43-22.21-46.49-22.58-75.4-25.19-20.47-1.85-51,2.79-66.82,16.77-7.08,6.26-12.47,13.18-16.19,20.75-3.72-7.57-9.11-14.49-16.19-20.75-15.82-13.98-46.34-18.62-66.82-16.77-28.92,2.61-62.98,2.98-75.4,25.19-18.14,28.63-38.44,73.53-43.11,108.58-5.05,37.94-7.8,62.18-9.58,100.28-1.08,23.09-1.24,47.92,1.6,70.61,2.05,16.4,2.48,16.95,20.69,19.19,22.02,2.71,45.72,3.18,67.94,3.13,35.91-.08,83.01,4.32,120.88,3.56,37.87,.76,84.97-3.64,120.88-3.56,22.22,.05,45.92-.42,67.94-3.13,18.21-2.24,18.63-2.78,20.69-19.19,2.85-22.69,2.69-47.51,1.6-70.61Z"/>
        <path class="cls-9" d="M281.02,712.12c0-65.04,64.87-138.37,100.21-164.76,2.86-2.14,5.49-3.27,10.03-3.27s7.17,1.13,10.03,3.27c35.34,26.38,100.21,99.72,100.21,164.76,0,15.3,.91,35.23-17.42,40.08-19.16,5.06-32.86-15.8-44.9-26.4-2.57,18.6,1.97,35.84-10.04,52.34-8.23,11.31-23.49,20.42-37.41,19.97,0,0,0,.02,0,.02-.15,.01-.31-.02-.47-.01-.15,0-.31,.02-.47,.01,0,0,0-.02,0-.02-13.92,.45-29.18-8.66-37.41-19.97-12-16.5-7.47-33.74-10.04-52.34-12.03,10.59-25.74,31.46-44.9,26.4-18.33-4.84-17.42-24.78-17.42-40.08Z"/>
        <path class="cls-1" d="M393.33,155.32s43.13-4.54,96.48,15.89c53.35,20.43,79.46,57.89,97.62,91.94,18.16,34.05,23.84,84,23.84,84,0,0,57.89,22.7,79.46,39.73l21.57,17.02-63.57,18.16s27.24,32.92,35.19,43.13c7.95,10.22,11.35,18.16,11.35,18.16h-53.35s23.84,37.46,28.38,56.75c4.54,19.29,3.41,35.19,3.41,35.19,0,0-51.08-20.43-115.78-17.02s-105.56,45.4-130.53,55.62-34.05,7.95-34.05,7.95V155.32h0Z"/>
        <path class="cls-1" d="M397.74,155.32s-43.13-4.54-96.48,15.89c-53.35,20.43-79.46,57.89-97.62,91.94-18.16,34.05-23.84,84-23.84,84,0,0-57.89,22.7-79.46,39.73l-21.57,17.02,63.57,18.16s-27.24,32.92-35.19,43.13c-7.95,10.22-11.35,18.16-11.35,18.16h53.35s-23.84,37.46-28.38,56.75-3.41,35.19-3.41,35.19c0,0,51.08-20.43,115.78-17.02,64.7,3.41,105.56,45.4,130.53,55.62,24.97,10.22,34.05,7.95,34.05,7.95V155.32h0Z"/>
        <path class="cls-2" d="M670.29,540.11c-3.68-15.63-20.02-43.18-26.09-53.08-52.68-60.23-164.25-69.2-248.67-65.72-84.42-3.47-195.99,5.49-248.67,65.72-6.07,9.9-22.41,37.44-26.09,53.08-4.54,19.3-3.41,35.19-3.41,35.19,0,0,51.08-20.43,115.78-17.02,64.7,3.41,105.56,45.4,130.53,55.62,18.15,7.42,27.87,8.25,31.85,8.15,3.98,.1,13.7-.72,31.85-8.15,24.97-10.22,65.83-52.22,130.53-55.62,64.7-3.41,115.78,17.02,115.78,17.02,0,0,1.15-15.89-3.39-35.19Z"/>
        <g>
          <path d="M553.13,358.05c.23-9.8,15.58-25.17,21.07-33.27,6.75-9.96,14.66-19.65,22.07-28.91,.87-1.09,1.87-2.54,2.97-3.84,5.04,15.78,8.22,31.32,10.03,41.86-8.97,5.37-21.35,9.07-27.57,12.12-9.29,4.55-19.12,8.2-28.58,12.05Z"/>
          <path d="M544.77,305.79c1-6.74,31.42-36.99,42.12-43.62,.18,.33,.36,.66,.54,.99,3.52,6.6,6.56,13.79,9.19,21.1-7.31,4.33-16.92,7.34-23.38,10.49-8.26,4.02-19.33,10.68-28.47,11.04Z"/>
          <path d="M427.36,261c-6.24-25.27-9.45-51.81-12.94-77.7-1.19-8.82-2.02-18.86-3.55-28.29,10.53,.34,25.18,1.62,42.36,5.33-1.72,18.84-6.91,37.24-11.66,55.56-3.88,14.96-7.18,31.34-14.21,45.1Z"/>
        </g>
        <g>
          <circle class="cls-10" cx="470.94" cy="381.55" r="20.9"/>
          <circle class="cls-2" cx="470.94" cy="381.55" r="6.57"/>
        </g>
        <path class="cls-10" d="M396.66,462.41c6.72,0,29.27-2.75,32.81,4.18,3.88,7.57-12.95,22.3-17.72,25.91-5.1,3.86-8.83,4.94-14.53,7.43-3.7-10.29,1.77-25.25-.56-37.52Z"/>
        <path class="cls-10" d="M395.77,496.94c-2.15,23.71,6.22,49.65,29.36,60.13,21.5,9.74,53.77,5.11,72.26-9.04,2.45-1.87-.65-5.53-3.1-3.65-16.57,12.68-45.24,16.67-64.88,9.29-22.69-8.53-30.8-33.6-28.92-55.86,.26-3.05-4.44-3.94-4.71-.87h0Z"/>
        <path class="cls-8" d="M456.6,465.25c69.33-6.58,140.33,5.39,203.68,34.32"/>
        <path class="cls-8" d="M456.39,488.02c85.2,11.3,168.02,40.2,241.75,84.34"/>
        <path class="cls-8" d="M452.83,507.45c94.6,36.92,179.61,98.09,244.67,176.06"/>
        <g>
          <path d="M237.93,358.05c-.23-9.8-15.58-25.17-21.07-33.27-6.75-9.96-14.66-19.65-22.07-28.91-.87-1.09-1.87-2.54-2.97-3.84-5.04,15.78-8.22,31.32-10.03,41.86,8.97,5.37,21.35,9.07,27.57,12.12,9.29,4.55,19.12,8.2,28.58,12.05Z"/>
          <path d="M246.29,305.79c-1-6.74-31.42-36.99-42.12-43.62-.18,.33-.36,.66-.54,.99-3.52,6.6-6.56,13.79-9.19,21.1,7.31,4.33,16.92,7.34,23.38,10.49,8.27,4.02,19.33,10.68,28.47,11.04Z"/>
          <path d="M363.71,261c6.24-25.27,9.45-51.81,12.94-77.7,1.19-8.82,2.02-18.86,3.55-28.29-10.53,.34-25.18,1.62-42.36,5.33,1.72,18.84,6.91,37.24,11.66,55.56,3.87,14.96,7.17,31.34,14.21,45.1Z"/>
        </g>
        <g>
          <circle class="cls-10" cx="324.06" cy="381.55" r="20.9"/>
          <circle class="cls-2" cx="324.06" cy="381.55" r="6.57"/>
        </g>
        <path class="cls-10" d="M400.3,462.21c-6.72,0-35.15-2.55-38.7,4.38-3.88,7.57,12.95,22.3,17.72,25.91,5.1,3.86,11.69,6.44,17.38,8.93,3.69-10.29,1.26-26.95,3.59-39.22Z"/>
        <path class="cls-10" d="M390.55,497.58c2.03,22.41-6.25,47.67-29.09,56.17-19.7,7.33-48.31,3.16-64.86-9.51-2.45-1.88-5.19,2.05-2.75,3.92,18.43,14.1,50.92,18.69,72.28,8.82,22.96-10.61,31.2-36.18,29.19-59.82-.26-3.07-5.05-2.66-4.77,.42h0Z"/>
        <path class="cls-8" d="M334.47,465.25c-69.33-6.58-140.33,5.39-203.68,34.32"/>
        <path class="cls-8" d="M334.67,488.02c-85.2,11.3-168.02,40.2-241.75,84.34"/>
        <path class="cls-8" d="M338.24,507.45c-94.6,36.92-179.61,98.09-244.67,176.06"/>
      </g>
      <path class="cls-3" d="M393.61,155.05c-4.12-.18-11.2-.29-20.51,.31-.69,.04-1.36,.09-2.07,.14-1.09,.08-2.2,.18-3.34,.28-.81,.07-1.63,.15-2.47,.24-1.19,.12-2.36,.23-3.59,.38-.8,.09-1.64,.21-2.46,.31-2.24,.28-4.55,.61-6.93,.98-.96,.15-1.91,.3-2.89,.46-1.35,.23-2.73,.47-4.12,.73-1.04,.19-2.09,.4-3.15,.61-12.41,2.46-26.2,6.13-40.81,11.73-.74,.29-1.42,.61-2.15,.9-10.99-27.17-37.13-46.3-67.65-46.3-40.44,0-73.21,33.54-73.21,74.92,0,30.19,17.48,56.13,42.62,68-.74,1.54-1.45,3.11-2.14,4.7,0,.02-.02,.04-.03,.07-1.52,3.52-2.93,7.13-4.24,10.77h0c-.93,2.59-1.8,5.18-2.63,7.77h0c-3.15,9.86-5.57,19.62-7.38,28.13,0,0,0,.01,0,.02-.36,1.67-.69,3.29-1,4.86-.01,.06-.02,.13-.04,.19-2.56,12.94-3.59,21.93-3.59,21.93,0,0-57.89,22.7-79.46,39.73l-21.57,17.03,63.57,18.16s-27.24,32.92-35.19,43.13c-7.95,10.22-11.35,18.16-11.35,18.16h53.35s-.93,1.47-2.44,3.93c-.37,.6-.77,1.25-1.2,1.97-.18,.31-.39,.64-.58,.97-.18,.29-.35,.57-.53,.88-4.9,2.01-9.78,4.08-14.6,6.28-1.2,.55-1.73,1.97-1.19,3.17,.4,.88,1.27,1.4,2.18,1.4,.33,0,.67-.07,1-.22,2.83-1.29,5.69-2.51,8.55-3.74-.26,.45-.53,.92-.79,1.38-.19,.33-.37,.64-.56,.97-.72,1.27-1.46,2.58-2.21,3.92-.18,.32-.35,.65-.53,.97-.57,1.04-1.15,2.09-1.72,3.16-.26,.49-.52,.97-.78,1.46-.5,.95-1,1.89-1.5,2.85-.27,.52-.54,1.04-.81,1.56-.53,1.04-1.06,2.08-1.58,3.12-.21,.41-.41,.83-.62,1.24-.71,1.45-1.4,2.9-2.07,4.34-.1,.21-.18,.41-.28,.61-.56,1.22-1.09,2.42-1.6,3.6-.2,.45-.37,.89-.56,1.34-.39,.94-.77,1.87-1.12,2.78-.18,.47-.36,.94-.54,1.41-.34,.91-.64,1.78-.93,2.65-.13,.4-.27,.81-.4,1.19-.38,1.22-.72,2.41-.98,3.52-.57,2.41-1.04,4.77-1.45,7.05-.51,2.88-.89,5.62-1.19,8.2-8.95,4.78-17.78,9.75-26.45,14.94-1.14,.68-1.51,2.15-.83,3.29,.45,.75,1.24,1.17,2.05,1.17,.42,0,.85-.11,1.23-.34,7.7-4.61,15.53-9.02,23.45-13.3-.03,.44-.07,.9-.1,1.32-.05,.87-.1,1.71-.13,2.5-.07,1.6-.11,3.04-.12,4.31,0,.63,0,1.23,0,1.77,.02,2.72,.13,4.27,.13,4.27,0,0,9.78-3.91,26.19-8.03,1.17-.29,2.38-.59,3.62-.88,2.48-.59,5.09-1.18,7.82-1.75,9.56-2.01,20.61-3.88,32.76-5.14,3.47-.36,7.03-.67,10.68-.92,5.46-.37,11.11-.61,16.9-.67h.09c-2.5,5.49-4.88,11.1-7.1,16.76-43.25,30.48-82.56,66.52-116.59,107.3-.84,1.02-.71,2.53,.31,3.37,.45,.38,.99,.56,1.53,.56,.68,0,1.36-.29,1.84-.86,32.25-38.64,69.26-73.03,109.89-102.39-5.39,14.88-9.5,29.78-11.29,43.24-5.05,37.94-7.8,62.18-9.58,100.28-1.08,23.09-1.24,47.92,1.6,70.61,2.05,16.4,2.48,16.95,20.69,19.19,22.02,2.71,45.72,3.18,67.94,3.13,35.32-.08,81.42,4.15,118.96,3.57V155.05h.03Z"/>
    </g>
  </g>
</svg>