<?xml version="1.0" encoding="UTF-8"?>
<svg id="Layer_1" data-name="Layer 1" xmlns="http://www.w3.org/2000/svg" xmlns:xlink="http://www.w3.org/1999/xlink" viewBox="0 0 800 800">
  <defs>
    <style>
      .cls-1, .cls-2 {
        fill: #fff;
      }

      .cls-3, .cls-4 {
        fill: #ba9b89;
      }

      .cls-5 {
        fill: #e1d9cb;
      }

      .cls-6 {
        fill: #e38383;
      }

      .cls-7 {
        clip-path: url(#clippath-1);
      }

      .cls-4 {
        opacity: .5;
      }

      .cls-4, .cls-2 {
        isolation: isolate;
      }

      .cls-8 {
        clip-path: url(#clippath);
      }

      .cls-9 {
        fill: none;
      }

      .cls-10 {
        fill: #231f20;
      }

      .cls-11 {
        fill: #ffca3c;
      }

      .cls-12 {
        fill: #666;
      }

      .cls-2 {
        opacity: .2;
      }

      .cls-13 {
        fill: #8c593b;
      }
    </style>
    <clipPath id="clippath">
      <circle class="cls-9" cx="1220" cy="400" r="400"/>
    </clipPath>
    <clipPath id="clippath-1">
      <circle class="cls-9" cx="400" cy="400" r="400"/>
    </clipPath>
  </defs>
  <g class="cls-8">
    <g>
      <path class="cls-12" d="M1663.72,1414.4c-19.18-22.67-76.73-15.69-76.73-15.69,0,0,38.37-55.81,57.55-109.87,19.18-54.06,31.39-176.14-8.72-209.28-40.11-33.13-118.59,40.11-118.59,40.11-7.9,11.86-50.21,80.7-92.65,153.39,14.96-56.38,27.83-106.68,29.86-120.26,5.23-34.88-13.95-415.06-43.6-469.13-26.44-48.22-159.62-58.97-188.12-60.73v-.31s-1.02,.05-2.73,.14c-1.71-.09-2.73-.14-2.73-.14v.31c-28.5,1.76-161.67,12.52-188.12,60.73-29.65,54.06-48.83,434.24-43.6,469.13,2.04,13.58,14.9,63.88,29.87,120.26-42.43-72.7-84.74-141.53-92.65-153.39,0,0-78.48-73.24-118.59-40.11-40.11,33.13-27.9,155.21-8.72,209.28,19.18,54.06,57.55,109.87,57.55,109.87,0,0-57.55-6.98-76.73,15.69-19.18,22.67-3.49,52.32,8.72,54.06,9.68,1.38,198.03,1.67,283.48-3.49h303.04c85.45,5.15,273.8,4.87,283.48,3.49,12.21-1.74,27.91-31.39,8.73-54.06Z"/>
      <path class="cls-2" d="M1217.16,100.58c-2.87,.03-5.23,.15-6.93,.29-20.81-.18-73.26,7.23-109.58,80.55-36.52,73.73-40.38,118.89-55.77,192.01-14.23-8.7-35.68-17.09-57.59-8.02-37.93,15.69-41.86,56.24-11.77,66.71,18.06,6.28,37.49,10.18,52.72,10.61-2.87,10.57-6.01,21.64-9.56,33.42-43.6,144.75-149.98,266.83-169.17,422.04-6.9,55.8-5.66,116.99-.38,175.91-16.36-4.85-32.51-4.83-44.97,5.46-40.11,33.13-27.9,155.21-8.72,209.28,19.18,54.06,57.55,109.87,57.55,109.87,0,0-57.55-6.98-76.73,15.69-19.18,22.67-3.49,52.32,8.72,54.06,9.68,1.38,198.03,1.67,283.48-3.49h148.69V100.58h0Z"/>
    </g>
  </g>
  <g>
    <circle class="cls-11" cx="400" cy="400" r="400"/>
    <g class="cls-7">
      <g>
        <g>
          <path class="cls-3" d="M586.1,739.23c.02-52.16-.3-87.47-5.29-139.28-5.46-56.65-12.12-138.72-35.24-192.05-57.37-41.44-135.49,6.15-145.83,50.93-.86,3.72-1.62,7.6-2.32,11.57-1.36-3.96-2.57-7.84-3.43-11.57-10.34-44.78-88.46-92.37-145.83-50.93-23.11,53.33-29.79,135.41-35.24,192.05-4.99,51.81-5.31,87.12-5.29,139.28,0,17.48-3.12,39.18,1.83,55.35,4.04,13.2,.81,10.75,15.71,15.09,18.06,5.26,38.09,10.57,56.56,14.43,22.49,4.7,44.3,2.37,66.77,1.38,4.4-.19,39.54,.04,67.86-.66,6.33,3.74,21.76,.34,28.88,.66,22.47,.99,44.28,3.32,66.77-1.38,18.47-3.86,38.5-9.17,56.56-14.43,14.9-4.34,11.67-1.89,15.71-15.09,4.96-16.18,1.82-37.87,1.83-55.35Z"/>
          <path class="cls-4" d="M586.1,739.23c.02-52.16-.3-87.47-5.29-139.28-5.46-56.65-12.12-138.72-35.24-192.05-57.37-41.44-135.49,6.15-145.83,50.93-.86,3.72-1.62,7.6-2.32,11.57-1.36-3.96-2.57-7.84-3.43-11.57-10.34-44.78-88.46-92.37-145.83-50.93-23.11,53.33-29.79,135.41-35.24,192.05-4.99,51.81-5.31,87.12-5.29,139.28,0,17.48-3.12,39.18,1.83,55.35,4.04,13.2,.81,10.75,15.71,15.09,18.06,5.26,38.09,10.57,56.56,14.43,22.49,4.7,44.3,2.37,66.77,1.38,4.4-.19,39.54,.04,67.86-.66,6.33,3.74,21.76,.34,28.88,.66,22.47,.99,44.28,3.32,66.77-1.38,18.47-3.86,38.5-9.17,56.56-14.43,14.9-4.34,11.67-1.89,15.71-15.09,4.96-16.18,1.82-37.87,1.83-55.35Z"/>
          <g>
            <path class="cls-13" d="M332.23,232.66c-1.84-9.2-10.9-16.79-17.51-22.84-7.74-7.09-16.13-13.63-24.11-20.54-6.45-5.58-12.86-11.26-19.3-16.84-4.92-4.26-10.53-7.27-15.52-11.49-9.32-7.89-22.83-15.18-35.46-15.41-7.93-.14-10.04,10.62-11.28,17.4-2.37,12.95-.91,26.16,1.1,39.09,2.29,14.76,2.37,29.56,5.21,44.2,1.49,7.72,2.79,17.62,7.9,23.92,6.88-4.7,13.75-7.81,21.45-11.28,9.85-4.43,21.96-9.35,32.35-12.27,10.54-2.96,20.72-5.79,30.89-9.86,7.88-3.16,15.08-5.81,24.28-4.07Z"/>
            <path class="cls-6" d="M232.9,256.67c-4.42-23.31-17.07-53.98-15.96-77.89,.31-6.71,1.42-13.28,8.47-13.95,7.25-.7,12.1,2.96,17.25,7.36,7.21,6.15,14.81,12.06,21.83,18.4,6.69,6.04,12.97,12.87,18.5,19.97,2.35,3.01,8.27,8.43,8.35,12.37-10.25,2.69-21.68,9.24-30.86,14.44-6.55,3.71-6.49,8.83-13.08,12.44-3.08,1.68-9.53,8.15-14.51,6.85Z"/>
          </g>
          <g>
            <path class="cls-13" d="M473.45,232.66c1.84-9.2,10.9-16.79,17.51-22.84,7.74-7.09,16.13-13.63,24.11-20.54,6.45-5.58,12.86-11.26,19.3-16.84,4.92-4.26,10.53-7.27,15.52-11.49,9.32-7.89,22.83-15.18,35.46-15.41,7.93-.14,10.04,10.62,11.28,17.4,2.37,12.95,.91,26.16-1.1,39.09-2.29,14.76-2.37,29.56-5.21,44.2-1.49,7.72-2.79,17.62-7.9,23.92-6.88-4.7-13.75-7.81-21.45-11.28-9.85-4.43-21.96-9.35-32.35-12.27-10.54-2.96-20.72-5.79-30.89-9.86-7.88-3.16-15.08-5.81-24.28-4.07Z"/>
            <path class="cls-6" d="M572.79,256.67c4.42-23.31,17.07-53.98,15.96-77.89-.31-6.71-1.42-13.28-8.47-13.95-7.25-.7-12.1,2.96-17.25,7.36-7.21,6.15-14.81,12.06-21.83,18.4-6.69,6.04-12.97,12.87-18.5,19.97-2.35,3.01-8.27,8.43-8.35,12.37,10.25,2.69,21.68,9.24,30.86,14.44,6.55,3.71,6.49,8.83,13.08,12.44,3.08,1.68,9.54,8.15,14.51,6.85Z"/>
          </g>
          <path class="cls-3" d="M657.1,344.94c.67-12.81-24.74-21.54-30.37-32.54,9.39-6.05,23-1.92,31.64-9.07-8.56-15.19-29.21-28.19-44.42-37.45-34.16-20.79-132.32-65.02-213.94-66.4-77.85-1.31-179.78,45.6-213.94,66.4-15.21,9.26-35.86,22.25-44.42,37.45,8.63,7.15,22.25,3.02,31.64,9.07-5.63,11-31.05,19.73-30.37,32.54,15.93,5.72,33,1.02,19.44,19.51-9.32,12.7-15.74,18.35,2.03,24.49,16.96,5.86,14.6,5.14,14.35,21.71-.16,11,.58,14.55,9.68,21.09,14.64,10.52,32.15,21.57,48.84,29.61,9.5,4.58,19.97,8.86,28,15.96,17.25,15.24,36.73,40.85,57.96,54.19,20.81,13.08,48.81,23.52,76.8,23.52s47.53-7.29,68.34-20.38c21.23-13.34,49.16-42.09,66.41-57.34,8.03-7.09,18.5-11.38,28-15.96,16.69-8.04,34.19-19.09,48.84-29.61,9.1-6.54,9.84-10.09,9.68-21.09-.25-16.57-2.61-15.85,14.35-21.71,17.77-6.14,11.34-11.8,2.03-24.49-13.57-18.49,3.5-13.79,19.44-19.51Z"/>
          <path class="cls-13" d="M439.26,344.87c15.13-8.79,26.1-13.9,43.94-14.98,10.34-.62,21.72-.07,31.47-3.98,12.63-5.07,9.77-11.39-2.9-11.99-11.46-.54-21.75,6.07-32.23,10.13,7.97-8.47,20.78-25.14,20.51-36.94-17.81-.61-32.59,17.6-43.66,29.55,.09-10.55,6.24-27.26-.36-36.58-19.21,9.02-16.77,46.74-16.77,64.8Z"/>
          <path class="cls-13" d="M360.74,344.87c-15.14-8.79-26.1-13.9-43.94-14.98-10.34-.62-21.72-.07-31.47-3.98-12.63-5.07-9.77-11.39,2.9-11.99,11.46-.54,21.75,6.07,32.23,10.13-7.97-8.47-20.78-25.14-20.51-36.94,17.81-.61,32.59,17.6,43.66,29.55-.09-10.55-6.24-27.26,.36-36.58,19.21,9.02,16.77,46.74,16.77,64.8Z"/>
          <g>
            <circle class="cls-10" cx="335.82" cy="380.38" r="23.06"/>
            <circle class="cls-1" cx="335.82" cy="380.38" r="7.25"/>
          </g>
          <g>
            <circle class="cls-10" cx="462.68" cy="380.38" r="23.06"/>
            <circle class="cls-1" cx="462.68" cy="380.38" r="7.25"/>
          </g>
          <path class="cls-5" d="M398.81,466.04c-4.43-9.24-22.25-18.68-31.28-23.25-10.31-5.21-21.51-7.26-33.05-6.71-17.35,.83-37.46,12.71-42.95,29.95-5.86,18.39-2.67,38.56,13.88,51.07,19.84,15,46.86,13.23,66.1,6.63,11.51-3.95,23.77-13.07,28.63-24.67,4.2-10.02,6.7-29.72-1.32-33.04Z"/>
          <path class="cls-5" d="M399.79,466.04c4.43-9.24,22.25-18.68,31.28-23.25,10.31-5.21,21.51-7.26,33.05-6.71,17.35,.83,37.46,12.71,42.95,29.95,5.86,18.39,2.67,38.56-13.88,51.07-19.84,15-46.86,13.23-66.1,6.63-11.51-3.95-23.77-13.07-28.63-24.67-4.2-10.02-6.7-29.72,1.32-33.04Z"/>
          <path class="cls-6" d="M400.85,490.86c-2.1-15.98-10.37-8.96-20.68-12.03-11.11-3.3-9.31-16.21,1.45-18.65,9.89-2.24,21.78-1.04,32.02-.92,8.96,.11,24.53,9.65,9.93,18.52-8.32,5.05-23.86-.35-22.72,13.07Z"/>
        </g>
        <path class="cls-2" d="M401.32,199.54c-.44,0-.88-.04-1.32-.05-26.18-.44-55.07,4.58-83.19,12.22-.7-.64-1.41-1.28-2.08-1.89-7.74-7.09-16.13-13.63-24.11-20.54-6.45-5.58-12.86-11.26-19.3-16.84-4.92-4.26-10.53-7.27-15.52-11.49-9.32-7.89-22.83-15.18-35.46-15.41-7.93-.14-10.04,10.62-11.28,17.4-2.37,12.95-.91,26.16,1.1,39.09,2.29,14.76,2.37,29.55,5.21,44.2,.23,1.16,.45,2.38,.68,3.63-12.45,6.04-22.75,11.63-29.99,16.03-15.21,9.26-35.86,22.25-44.42,37.45,8.63,7.15,22.25,3.02,31.64,9.07-5.63,11-31.04,19.73-30.37,32.54,15.93,5.72,33,1.02,19.44,19.51-9.32,12.7-15.74,18.35,2.03,24.49,16.96,5.86,14.6,5.14,14.35,21.71-.16,11,.58,14.55,9.68,21.09,13.17,9.46,28.66,19.34,43.79,27.08-10.79,46.81-15.36,100.49-19.27,141.13-4.99,51.81-5.31,87.12-5.29,139.28,0,17.48-3.12,39.18,1.83,55.35,4.04,13.2,.81,10.75,15.71,15.09,18.06,5.26,38.09,10.57,56.56,14.43,22.49,4.7,44.3,2.37,66.77,1.38,3.64-.16,28.35-.03,52.81-.38V199.54Z"/>
      </g>
    </g>
  </g>
</svg>