<?xml version="1.0" encoding="UTF-8"?>
<svg id="Layer_1" data-name="Layer 1" xmlns="http://www.w3.org/2000/svg" xmlns:xlink="http://www.w3.org/1999/xlink" viewBox="0 0 800 800">
  <defs>
    <style>
      .cls-1 {
        fill: #ffac45;
      }

      .cls-2, .cls-3 {
        fill: #fff;
      }

      .cls-4 {
        fill: #b85e26;
      }

      .cls-5 {
        clip-path: url(#clippath-1);
      }

      .cls-6 {
        clip-path: url(#clippath);
      }

      .cls-7 {
        fill: none;
      }

      .cls-8 {
        fill: #ffd5a2;
      }

      .cls-9 {
        fill: #bbd64a;
      }

      .cls-10 {
        fill: #231f20;
      }

      .cls-11 {
        fill: #666;
      }

      .cls-12 {
        fill: #1d1d1b;
      }

      .cls-3 {
        isolation: isolate;
        opacity: .2;
      }
    </style>
    <clipPath id="clippath">
      <circle class="cls-7" cx="-420" cy="400" r="400"/>
    </clipPath>
    <clipPath id="clippath-1">
      <circle class="cls-7" cx="400" cy="400" r="400"/>
    </clipPath>
  </defs>
  <g class="cls-6">
    <path class="cls-11" d="M23.72,1414.4c-19.18-22.67-76.73-15.69-76.73-15.69,0,0,38.37-55.81,57.55-109.87,19.18-54.06,31.39-176.14-8.72-209.28-40.11-33.13-118.59,40.11-118.59,40.11-7.9,11.86-50.21,80.7-92.65,153.39,14.96-56.38,27.83-106.68,29.86-120.26,5.23-34.88-13.95-415.06-43.6-469.13-26.44-48.22-159.62-58.97-188.12-60.73v-.31s-1.02,.05-2.73,.14c-1.71-.09-2.73-.14-2.73-.14v.31c-28.5,1.76-161.67,12.52-188.12,60.73-29.65,54.06-48.83,434.24-43.6,469.13,2.04,13.58,14.9,63.88,29.87,120.26-42.43-72.7-84.74-141.53-92.65-153.39,0,0-78.48-73.24-118.59-40.11-40.11,33.13-27.9,155.21-8.72,209.28,19.18,54.06,57.55,109.87,57.55,109.87,0,0-57.55-6.98-76.73,15.69-19.18,22.67-3.49,52.32,8.72,54.06,9.68,1.38,198.03,1.67,283.48-3.49H-268.48c85.45,5.15,273.8,4.87,283.48,3.49,12.21-1.74,27.91-31.39,8.73-54.06Z"/>
  </g>
  <g>
    <circle class="cls-9" cx="400" cy="400" r="400"/>
    <g class="cls-5">
      <g>
        <g>
          <path class="cls-1" d="M589.72,715.31c-3.37-66.92-21.53-130.22-52.69-190.02-36.25-3.18-110.32-17.96-137.18,13.18-26.86-31.14-100.93-16.37-137.18-13.18-31.16,59.8-49.32,123.09-52.69,190.02-.88,17.47-5.04,45.65,0,62.27,5.82,19.22,35.08,16.89,52.73,24.71,20.45,9.05,38.59,17.34,61.15,21.29,18.37,3.21,56.49,5.8,75.99-3.88,19.51,9.68,57.63,7.09,75.99,3.88,22.57-3.95,40.7-12.23,61.15-21.29,17.65-7.81,46.91-5.49,52.73-24.71,5.03-16.63,.87-44.81-.01-62.27Z"/>
          <ellipse class="cls-4" cx="400.6" cy="401.9" rx="312.88" ry="310.46"/>
          <g>
            <circle class="cls-1" cx="273.71" cy="251.53" r="46"/>
            <circle class="cls-8" cx="273.71" cy="251.53" r="28.02"/>
          </g>
          <path class="cls-1" d="M451.22,512.28c-10.72-12.62-24.58-24.83-37.02-35.81-5.89-5.2-10.02-7.54-14.35-1.69-4.33-5.85-8.46-3.51-14.35,1.69-12.44,10.98-26.3,23.18-37.02,35.81-8.61,10.14-30.79,30.34-25.13,42.55,2.17,14.32,22.82,24.28,35.13,28.14,12.94,4.06,27.33,5.7,41.37,5.46,14.04,.25,28.43-1.39,41.37-5.46,12.3-3.86,32.96-13.83,35.13-28.14,5.66-12.21-16.52-32.41-25.13-42.55Z"/>
          <path class="cls-8" d="M403.59,221.49c-30.72,.59-67.21-6.57-94.6,7.75-19.89,10.41-34.39,35.97-43.22,55.43-17.32,38.16-26.99,89.15-35.84,129.64-11.62,53.17-24.14,133.22,47.91,144.91,22.21,3.61,50.3,8.38,76.65-3.59,20.87-9.48,38.7-25.8,45.54-47.91,4.89-15.81,3.58-35.53,3.56-52.43-.03-37.91-.35-76.17-3.39-113.79-3.27-40.46,3.11-79.21,3.39-120Z"/>
          <g>
            <circle class="cls-1" cx="526" cy="251.53" r="46"/>
            <circle class="cls-8" cx="526" cy="251.53" r="28.02"/>
          </g>
          <path class="cls-8" d="M396.11,221.49c30.72,.59,67.21-6.57,94.6,7.75,19.89,10.41,34.39,35.97,43.22,55.43,17.32,38.16,26.99,89.15,35.84,129.64,11.62,53.17,24.14,133.22-47.91,144.91-22.21,3.61-50.3,8.38-76.65-3.59-20.87-9.48-38.7-25.8-45.54-47.91-4.89-15.81-3.58-35.53-3.56-52.43,.03-37.91,.35-76.17,3.39-113.79,3.27-40.46-3.11-79.21-3.39-120Z"/>
          <path class="cls-1" d="M533.93,284.67c-8.83-19.45-23.33-45.02-43.22-55.43-25.26-13.22-58.27-8.15-87.35-7.75-1.16,.02-2.33,.02-3.51,.02s-2.35,0-3.51-.02c-29.08-.4-62.09-5.47-87.35,7.75-19.89,10.41-34.39,35.97-43.22,55.43-2.19,4.83-4.26,9.86-6.21,15.05,11.98,1.72,23.47,6.79,33.85,12.79,31.03,17.94,49.18,38.95,63.76,71.88,14.78,33.38,18.14,68.12,28.66,101.59,3.5,.59,6.99,1.34,10.53,1.91,.02,.26,.02,.52,.04,.78,1.16-.05,2.31-.17,3.45-.3,1.15,.13,2.29,.25,3.45,.3,.02-.26,.02-.52,.04-.78,3.54-.57,7.03-1.33,10.53-1.91,10.52-33.47,13.87-68.21,28.66-101.59,14.59-32.93,32.73-53.95,63.76-71.88,10.38-6,21.87-11.07,33.85-12.79-1.96-5.19-4.02-10.22-6.21-15.05Z"/>
          <path class="cls-12" d="M354.55,495.7c-72.07,4.59-135.59,41.49-196.21,77.6-2.65,1.58-.24,5.72,2.42,4.14,59.83-35.65,122.64-72.42,193.8-76.95,3.06-.2,3.09-4.99,0-4.79h0Z"/>
          <path class="cls-12" d="M353.18,476.22c-62.08-7.97-125.03-3.23-185.23,13.86-2.96,.84-1.7,5.46,1.27,4.62,59.82-16.99,122.28-21.61,183.96-13.69,3.04,.39,3.02-4.4,0-4.79h0Z"/>
          <path class="cls-12" d="M364.32,509.7c-53.53,31.5-101.93,70.92-143.6,116.99-2.07,2.28,1.31,5.68,3.39,3.39,41.41-45.78,89.42-84.93,142.63-116.24,2.66-1.56,.25-5.71-2.42-4.14h0Z"/>
          <g>
            <circle class="cls-10" cx="322.77" cy="401.13" r="20.9"/>
            <circle class="cls-2" cx="322.77" cy="401.13" r="6.57"/>
          </g>
          <path d="M399.85,472.37c-12-3.31-36.33-6.37-27.17,11.44,3.93,7.64,26.34,26.49,27.17,26.14,.83,.35,23.25-18.5,27.17-26.14,9.16-17.81-15.17-14.75-27.17-11.44Z"/>
          <path class="cls-12" d="M445.15,500.49c71.15,4.53,133.96,41.3,193.8,76.95,2.66,1.58,5.07-2.56,2.42-4.14-60.62-36.11-124.15-73.01-196.21-77.6-3.08-.2-3.07,4.6,0,4.79h0Z"/>
          <path class="cls-12" d="M446.53,481.01c61.68-7.92,124.14-3.3,183.96,13.69,2.97,.84,4.24-3.78,1.27-4.62-60.2-17.09-123.16-21.83-185.23-13.86-3.02,.39-3.06,5.18,0,4.79h0Z"/>
          <path class="cls-12" d="M432.96,513.84c53.2,31.31,101.22,70.46,142.63,116.24,2.07,2.29,5.45-1.1,3.39-3.39-41.66-46.07-90.06-85.49-143.6-116.99-2.66-1.56-5.08,2.57-2.42,4.14h0Z"/>
          <g>
            <circle class="cls-10" cx="476.94" cy="401.13" r="20.9"/>
            <circle class="cls-2" cx="476.94" cy="401.13" r="6.57"/>
          </g>
        </g>
        <path class="cls-3" d="M398.4,91.5c-171.78,1.18-310.68,139.68-310.68,310.41,0,103.57,51.16,195.23,129.71,251.63-3.9,20.24-6.4,40.83-7.45,61.77-.88,17.47-5.04,45.65,0,62.27,5.82,19.22,35.08,16.89,52.73,24.71,20.45,9.05,38.59,17.34,61.15,21.29,17.93,3.14,54.66,5.64,74.54-3.25V91.5h0Z"/>
      </g>
    </g>
  </g>
</svg>