<?xml version="1.0" encoding="UTF-8"?>
<svg id="Layer_1" data-name="Layer 1" xmlns="http://www.w3.org/2000/svg" xmlns:xlink="http://www.w3.org/1999/xlink" viewBox="0 0 800 800">
  <defs>
    <style>
      .cls-1, .cls-2 {
        fill: #fff;
      }

      .cls-3 {
        clip-path: url(#clippath-2);
      }

      .cls-4 {
        fill: #b2b2b2;
      }

      .cls-5 {
        fill: #8c8c8c;
      }

      .cls-6 {
        fill: #333;
      }

      .cls-7 {
        clip-path: url(#clippath-1);
      }

      .cls-8 {
        fill: #ff6470;
      }

      .cls-9 {
        clip-path: url(#clippath);
      }

      .cls-10 {
        fill: none;
      }

      .cls-11 {
        clip-path: url(#clippath-3);
      }

      .cls-12 {
        fill: #231f20;
      }

      .cls-13 {
        fill: #666;
      }

      .cls-2 {
        isolation: isolate;
        opacity: .2;
      }
    </style>
    <clipPath id="clippath">
      <circle class="cls-10" cx="400" cy="400" r="400"/>
    </clipPath>
    <clipPath id="clippath-1">
      <path class="cls-10" d="M546.92,432.12c-11.69-67.27-34.69-139.95-34.69-139.95,0,0-6.12-3.67-28.71-5.23-17.93-1.24-67.27-4.51-90.41-4.14-17.18-.38-58.69,2.9-76.62,4.14-22.59,1.56-28.71,5.23-28.71,5.23,0,0-23.01,72.68-34.69,139.95-13.41,77.17-17.94,117.72,29.91,171.34,39.95,44.77,97.77,43.79,115.17,43.49,18.2-.31,73.57,9.53,118.86-43.49,46.68-54.65,43.31-94.18,29.91-171.34Z"/>
    </clipPath>
    <clipPath id="clippath-2">
      <path class="cls-10" d="M546.92,432.12c-11.69-67.27-34.69-139.95-34.69-139.95,0,0-6.12-3.67-28.71-5.23-17.93-1.24-67.27-4.51-90.41-4.14-17.18-.38-58.69,2.9-76.62,4.14-22.59,1.56-28.71,5.23-28.71,5.23,0,0-23.01,72.68-34.69,139.95-13.41,77.17-17.94,117.72,29.91,171.34,39.95,44.77,97.77,43.79,115.17,43.49,18.2-.31,73.57,9.53,118.86-43.49,46.68-54.65,43.31-94.18,29.91-171.34Z"/>
    </clipPath>
    <clipPath id="clippath-3">
      <path class="cls-10" d="M546.92,432.12c-11.69-67.27-34.69-139.95-34.69-139.95,0,0-6.12-3.67-28.71-5.23-17.93-1.24-67.27-4.51-90.41-4.14-17.18-.38-58.69,2.9-76.62,4.14-22.59,1.56-28.71,5.23-28.71,5.23,0,0-23.01,72.68-34.69,139.95-13.41,77.17-17.94,117.72,29.91,171.34,39.95,44.77,97.77,43.79,115.17,43.49,18.2-.31,73.57,9.53,118.86-43.49,46.68-54.65,43.31-94.18,29.91-171.34Z"/>
    </clipPath>
  </defs>
  <circle class="cls-8" cx="400" cy="400" r="400"/>
  <g class="cls-9">
    <g>
      <g>
        <g>
          <path class="cls-13" d="M241.85,386.34s-36.62-36.62-74.56-20.93c-37.93,15.69-41.86,56.24-11.77,66.71,30.08,10.46,64.09,14.39,75.86,6.54,11.78-7.85,10.47-52.32,10.47-52.32Z"/>
          <path class="cls-13" d="M558.15,386.34s36.62-36.62,74.56-20.93c37.93,15.69,41.86,56.24,11.77,66.71-30.08,10.46-64.09,14.39-75.86,6.54-11.78-7.85-10.47-52.32-10.47-52.32Z"/>
          <path class="cls-13" d="M843.72,1414.4c-19.18-22.67-76.73-15.69-76.73-15.69,0,0,38.37-55.81,57.55-109.87,19.18-54.06,31.39-176.14-8.72-209.28-40.11-33.13-118.59,40.11-118.59,40.11-7.9,11.86-50.21,80.7-92.65,153.39,14.96-56.38,27.83-106.68,29.86-120.26,5.23-34.88-13.95-415.06-43.6-469.13-26.44-48.22-159.62-58.97-188.12-60.73v-.31s-1.02,.05-2.73,.14c-1.71-.09-2.73-.14-2.73-.14v.31c-28.5,1.76-161.67,12.52-188.12,60.73-29.65,54.06-48.83,434.24-43.6,469.13,2.04,13.58,14.9,63.88,29.87,120.26-42.43-72.7-84.74-141.53-92.65-153.39,0,0-78.48-73.24-118.59-40.11-40.11,33.13-27.9,155.21-8.72,209.28,19.18,54.06,57.55,109.87,57.55,109.87,0,0-57.55-6.98-76.73,15.69-19.18,22.67-3.49,52.32,8.72,54.06,9.68,1.38,198.03,1.67,283.48-3.49h303.04c85.45,5.15,273.8,4.87,283.48,3.49,12.21-1.74,27.91-31.39,8.73-54.06Z"/>
          <path class="cls-6" d="M770.47,898.19c-19.18-155.21-125.57-277.29-169.17-422.04-43.6-144.75-31.08-191.99-81.97-294.73-40.96-82.69-113.2-81.82-129.11-80.55-20.81-.18-73.26,7.23-109.58,80.55-50.89,102.74-38.37,149.98-81.97,294.73-43.6,144.75-149.98,266.83-169.17,422.04-19.18,155.21,24.42,352.28,43.6,425.53,19.18,73.24,45.34,125.57,73.25,130.8s41.86-33.13,41.86-33.13c0,0,5.23,38.37,31.39,38.37s34.88-36.62,34.88-36.62c0,0-2.12,35.75,24.42,38.37s33.13-33.13,33.13-33.13c0,0,5.23,33.13,38.37,31.39,33.13-1.74,38.37-193.58,41.86-252.87,3.49-59.29-19.18-211.02-74.99-313.91-27.68-51.03-57.55-136.03-26.16-183.12,28.62-42.93,96.32-54.82,108.18-54.88,9.98-.05,80.41,11.12,109.58,54.88,31.39,47.09,1.52,132.09-26.16,183.12-55.81,102.89-78.48,254.62-74.99,313.91,3.49,59.29,8.72,251.13,41.86,252.87,33.13,1.74,38.37-31.39,38.37-31.39,0,0,6.6,35.75,33.13,33.13,26.54-2.62,24.42-38.37,24.42-38.37,0,0,8.72,36.62,34.88,36.62s31.39-38.37,31.39-38.37c0,0,13.95,38.37,41.86,33.13,27.9-5.23,54.06-57.55,73.25-130.8,19.2-73.25,62.8-270.32,43.61-425.53Z"/>
          <g>
            <path class="cls-5" d="M546.92,432.12c-11.69-67.27-34.69-139.95-34.69-139.95,0,0-6.12-3.67-28.71-5.23-17.93-1.24-67.27-4.51-90.41-4.14-17.18-.38-58.69,2.9-76.62,4.14-22.59,1.56-28.71,5.23-28.71,5.23,0,0-23.01,72.68-34.69,139.95-13.41,77.17-17.94,117.72,29.91,171.34,39.95,44.77,97.77,43.79,115.17,43.49,18.2-.31,73.57,9.53,118.86-43.49,46.68-54.65,43.31-94.18,29.91-171.34Z"/>
            <g class="cls-7">
              <path class="cls-4" d="M229.21,565.97s10.46-34.01,54.06-60.17c43.6-26.16,75.86-26.16,75.86-26.16,0,0-35.52-23-10.2-48.98,18.96-19.45,38.97,3.64,43.33,10.61,4.36,6.98,5.23,11.33,5.23,11.33,0,0,10.03-30.08,26.59-30.96,26.14-1.38,32.67,14.01,30.05,32.32s-12.17,23.05-12.17,23.05c0,0,47.09,11.33,77.61,32.26s39.24,65.4,39.24,65.4c0,0-70.63,90.68-153.47,95.04-82.84,4.36-176.14-103.76-176.14-103.76Z"/>
            </g>
            <g class="cls-3">
              <circle class="cls-6" cx="367.41" cy="449.78" r="9.16"/>
            </g>
            <g class="cls-11">
              <circle class="cls-6" cx="426.93" cy="449.12" r="9.16"/>
            </g>
          </g>
          <rect class="cls-6" x="234" y="559.81" width="324.38" height="7.52"/>
        </g>
        <g>
          <circle class="cls-12" cx="368.84" cy="391.23" r="19.85"/>
          <circle class="cls-1" cx="368.84" cy="391.23" r="6.24"/>
        </g>
        <g>
          <circle class="cls-12" cx="427.05" cy="391.23" r="19.85"/>
          <circle class="cls-1" cx="427.05" cy="391.23" r="6.24"/>
        </g>
      </g>
      <path class="cls-2" d="M397.16,100.58c-2.87,.03-5.23,.15-6.93,.29-20.81-.18-73.26,7.23-109.58,80.55-36.52,73.73-40.38,118.89-55.77,192.01-14.23-8.7-35.68-17.09-57.59-8.02-37.93,15.69-41.86,56.24-11.77,66.71,18.06,6.28,37.49,10.18,52.72,10.61-2.87,10.57-6.01,21.64-9.56,33.42-43.6,144.75-149.98,266.83-169.17,422.04-6.9,55.8-5.66,116.99-.38,175.91-16.36-4.85-32.51-4.83-44.97,5.46-40.11,33.13-27.9,155.21-8.72,209.28,19.18,54.06,57.55,109.87,57.55,109.87,0,0-57.55-6.98-76.73,15.69-19.18,22.67-3.49,52.32,8.72,54.06,9.68,1.38,198.03,1.67,283.48-3.49h148.69V100.58h0Z"/>
    </g>
  </g>
</svg>