<?xml version="1.0" encoding="UTF-8"?>
<svg id="Layer_1" data-name="Layer 1" xmlns="http://www.w3.org/2000/svg" xmlns:xlink="http://www.w3.org/1999/xlink" viewBox="0 0 800 800">
  <defs>
    <style>
      .cls-1 {
        fill: #c1bdbb;
      }

      .cls-2, .cls-3 {
        fill: #fff;
      }

      .cls-4 {
        clip-path: url(#clippath);
      }

      .cls-5 {
        fill: none;
      }

      .cls-6 {
        fill: #818689;
      }

      .cls-7 {
        fill: #231f20;
      }

      .cls-8 {
        fill: #ffca3c;
      }

      .cls-3 {
        isolation: isolate;
        opacity: .2;
      }
    </style>
    <clipPath id="clippath">
      <circle class="cls-5" cx="400" cy="400" r="400"/>
    </clipPath>
  </defs>
  <circle class="cls-8" cx="400" cy="400" r="400"/>
  <g class="cls-4">
    <g>
      <g>
        <path class="cls-6" d="M618.64,649.32c-1.62-32.45-5.03-67.21-12.67-98.92-6.75-28.03-15.14-98.2-37.89-113.72-13.37-33.83-85.97-30.09-117.58-20.11-36.29,11.46-48.64,28.34-52.24,51.68-3.6-23.35-15.95-40.23-52.24-51.68-31.61-9.98-104.21-13.72-117.58,20.11-22.75,15.52-31.14,85.69-37.89,113.72-7.64,31.72-11.06,66.47-12.67,98.92-1.29,25.84-3.12,56.84,1.74,81.79,7.97,40.9,60.17,57.64,96.73,65.77,38.55,8.57,81.25,7.18,120.83,5.44,.42-2.8,.72-5.62,1.08-8.43,.36,2.81,.67,5.63,1.08,8.43,39.58,1.75,82.29,3.13,120.83-5.44,36.57-8.13,88.77-24.87,96.73-65.77,4.86-24.95,3.02-55.96,1.74-81.79Zm-220.39-125.04c.89,21.62,.67,43.38,0,65.2-.67-21.82-.89-43.58,0-65.2Z"/>
        <path class="cls-1" d="M573.3,551.76c-6.27-16.97-14.36-30.94-12.19-49.74,2.01-17.33,8.68-30.63,8.71-49.65-4.98-20.04-53.96-32.74-72.46-35.01-28.66-3.52-71.54-7.42-99.1,7.62-27.57-15.05-70.44-11.14-99.1-7.62-18.5,2.27-67.48,14.97-72.46,35.01,.03,19.02,6.71,32.33,8.71,49.65,2.17,18.8-5.92,32.77-12.19,49.74-14.24,38.53,4.64,82.86,27.92,114.94,29.27,40.33,69.31,75.29,116.72,93.61,10.31,3.99,20.93,6.87,30.4,5.89,9.47,.98,20.09-1.9,30.4-5.89,47.42-18.32,87.46-53.28,116.72-93.61,23.28-32.08,42.16-76.4,27.92-114.94Z"/>
        <g>
          <path class="cls-6" d="M319.03,262.83c-12.38-56.78-74.68-106.04-130.1-107.88-39.07-1.3-135.94,40.29-79.5,88.13-44.57,8.42-40.96,48.72,2.94,52.03-14.68,26.23-12.62,52.77,25.31,53.88-1.99,53.28,90.52,69.52,127.66,47.9,49.95-29.08,36.12-93.07,53.69-134.06Z"/>
          <path class="cls-1" d="M261.91,434.18c54.81-57.34,52.58-136.06,2.39-192.7-19.24-21.71-38.93-41.89-71.03-41.83-30.21,.05-49.42,20.67-45.58,51.48,2.69,21.58,19.18,22.88,19.06,29.46-.13,6.83-9.88,11.2-10.86,24.31-1.69,22.47,8.4,31.4,29.56,38.06-20.44,37.99,41.44,40.42,63.23,40.99,7.31,17.74-2.45,38.81,13.24,50.22Z"/>
        </g>
        <g>
          <path class="cls-6" d="M477.48,262.83c12.38-56.78,74.68-106.04,130.1-107.88,39.07-1.3,135.94,40.29,79.5,88.13,44.57,8.42,40.96,48.72-2.94,52.03,14.68,26.23,12.62,52.77-25.31,53.88,1.99,53.28-90.52,69.52-127.66,47.9-49.95-29.08-36.12-93.07-53.69-134.06Z"/>
          <path class="cls-1" d="M534.59,434.18c-54.81-57.34-52.58-136.06-2.39-192.7,19.24-21.71,38.93-41.89,71.03-41.83,30.21,.05,49.42,20.67,45.58,51.48-2.69,21.58-19.18,22.88-19.06,29.46,.13,6.83,9.88,11.2,10.86,24.31,1.69,22.47-8.4,31.4-29.56,38.06,20.44,37.99-41.44,40.42-63.23,40.99-7.31,17.74,2.45,38.81-13.24,50.22Z"/>
        </g>
        <path class="cls-6" d="M591.52,334.58c-18.62-42.88-37.02-85.52-73.15-117.09-32.72-28.59-77.03-29.48-118.77-29.51,0,0,0,0,0,0h-2.71s0,0,0,0c-41.74,.02-86.05,.92-118.77,29.51-36.13,31.57-54.53,74.21-73.16,117.09-12.88,29.66-22.94,75.02-11.21,106.94,14.75,40.13,57.87,64.68,96.04,77.37,32.68,10.86,74.17,11.62,108.44,9.98,34.27,1.65,75.76,.88,108.45-9.98,38.17-12.69,81.29-37.24,96.04-77.37,11.73-31.92,1.67-77.28-11.21-106.94Zm-193.27-145.71c2.85,1.93,1.78,1.74,0,1.78-1.78-.04-2.85,.15,0-1.78Z"/>
        <path class="cls-7" d="M396.42,434.24c5.82,21.57-7.63,39.6-27.75,46.66-17.36,6.09-33.45,3.3-49.61-4.38-1.03-.49-2.13,.75-1.26,1.63,28.13,28.62,98.84-1.81,80.35-44.64-.43-1-1.99-.28-1.72,.73h0Z"/>
        <g>
          <circle class="cls-7" cx="315.54" cy="339.11" r="22.8"/>
          <circle class="cls-2" cx="315.54" cy="339.11" r="7.17"/>
        </g>
        <path class="cls-7" d="M441.76,336.5c-6.38-25.97-17.88-30.01-40.83-30.44,0-.02-.02-.04-.03-.05-.92,0-1.78,.01-2.66,.02-.88,0-1.74-.02-2.66-.02,0,.02-.02,.04-.02,.05-22.95,.43-34.45,4.47-40.83,30.44-4.74,19.27-8.74,43.87-7.63,64.09,1.09,19.75,10.61,42.41,43.05,48.17,2.13,.86,4.8,1.22,8.09,1.02,3.29,.21,5.96-.16,8.09-1.02,32.44-5.76,41.96-28.43,43.05-48.17,1.11-20.22-2.89-44.82-7.63-64.09Z"/>
        <path class="cls-7" d="M402.97,433.51c-18.5,42.83,52.22,73.26,80.35,44.64,.86-.88-.22-2.13-1.26-1.63-16.16,7.69-32.25,10.48-49.61,4.38-20.12-7.06-33.56-25.1-27.75-46.66,.27-.99-1.28-1.73-1.72-.73h0Z"/>
        <g>
          <circle class="cls-7" cx="480.96" cy="339.11" r="22.8"/>
          <circle class="cls-2" cx="480.96" cy="339.11" r="7.17"/>
        </g>
      </g>
      <path class="cls-3" d="M400.88,187.98c-.43,0-.86,0-1.28,0,0,0,0,0,0,0h-2.71s0,0,0,0c-36.65,.02-75.29,.73-106.32,20.26-26.24-30.6-65.42-52.09-101.65-53.29-39.07-1.3-135.94,40.29-79.49,88.13-44.57,8.42-40.96,48.72,2.94,52.03-14.68,26.23-12.62,52.77,25.31,53.88-1.02,27.26,22.71,44.79,51.09,52.55-.72,14.19,.61,28.03,5.01,39.98,3.65,9.93,9.04,18.89,15.65,26.96-9.36,27.29-14.47,63.6-18.88,81.91-7.64,31.72-11.06,66.47-12.67,98.92-1.29,25.84-3.12,56.84,1.74,81.79,7.97,40.9,60.17,57.64,96.73,65.77,38.55,8.57,81.25,7.18,120.83,5.44,.42-2.8,.72-5.62,1.08-8.43,.36,2.81,.66,5.63,1.08,8.43,.51,.02,1.04,.04,1.55,.06V187.98h0Zm-2.63,2.66c-1.78-.04-2.85,.15,0-1.78,2.85,1.93,1.78,1.74,0,1.78Z"/>
    </g>
  </g>
</svg>