<?xml version="1.0" encoding="UTF-8"?>
<svg id="Layer_1" data-name="Layer 1" xmlns="http://www.w3.org/2000/svg" xmlns:xlink="http://www.w3.org/1999/xlink" viewBox="0 0 800 800">
  <defs>
    <style>
      .cls-1, .cls-2 {
        fill: #fff;
      }

      .cls-3 {
        fill: #702e1e;
      }

      .cls-4 {
        fill: #bc4029;
      }

      .cls-5 {
        clip-path: url(#clippath);
      }

      .cls-6 {
        fill: none;
      }

      .cls-7 {
        fill: #e9d8c9;
      }

      .cls-8 {
        fill: #bbd64a;
      }

      .cls-9 {
        fill: #231f20;
      }

      .cls-2 {
        isolation: isolate;
        opacity: .2;
      }
    </style>
    <clipPath id="clippath">
      <circle class="cls-6" cx="400" cy="400" r="400"/>
    </clipPath>
  </defs>
  <circle class="cls-8" cx="400" cy="400" r="400"/>
  <g class="cls-5">
    <g>
      <g>
        <path class="cls-4" d="M273.56,505.33c-3.64,9.34,3.41,26.78,.36,39.19-3.65,14.84-10.68,30.89-17.06,44.64-13.16,28.36-32.22,53.61-44.67,82.33-11.44,26.39-17.7,54.65-17.67,83.27,.02,14.78-2.31,31.98,.93,46.43,4.62,20.58,28.55,31.16,46.73,38.65,58.45,24.1,121.45,51.26,183.35,23.33-3.29-9.11,1.98-20.21,2.64-29.93,1.65-24.31,1.22-49.74,1.08-74.03-.28-48.97,2.18-100.94,0-149.7-1.27-28.26-7.96-56.24-34.08-74.21-18.37-12.63-37.33-15.13-57.58-22.39-15.35-5.51-31.55-12.63-64.03-7.6Z"/>
        <path class="cls-4" d="M526.43,505.27c3.64,9.34-3.41,26.78-.36,39.19,3.65,14.84,10.68,30.89,17.06,44.64,13.16,28.36,32.22,53.61,44.67,82.33,11.44,26.39,17.7,54.65,17.67,83.27-.02,14.78,2.31,31.98-.93,46.43-4.62,20.58-28.55,31.16-46.73,38.65-58.45,24.1-121.45,51.26-183.35,23.33,3.29-9.11-1.98-20.21-2.64-29.93-1.65-24.31-1.22-49.74-1.08-74.03,.28-48.97-2.18-100.94,0-149.7,1.27-28.26,7.96-56.24,34.08-74.21,18.37-12.63,37.33-15.13,57.58-22.39,15.35-5.51,31.54-12.63,64.02-7.6Z"/>
        <path class="cls-7" d="M512,802.22c-2.37-43.49-4.08-89.05-23.28-129.18-14.92-31.2-43.72-69.08-82.59-69.5-1.81-.65-3.73-.89-5.74-.71-2.46-.37-4.77-.08-6.94,.77-38.66,.68-67.31,38.39-82.19,69.49-19.2,40.13-20.9,85.69-23.28,129.18-1.85,33.85-11.17,102.75,24.55,122.86,18.93,10.66,48.36,13.19,69.4,10.19,6.9-.98,12.87-2.64,18.12-4.9,5.22,2.23,11.16,3.86,18,4.84,21.04,3,50.47,.47,69.4-10.19,35.73-20.11,26.4-89.01,24.55-122.86Z"/>
        <g>
          <g>
            <path class="cls-3" d="M192.18,100.93s37.86,.64,82.13,33.56c44.27,32.92,65.55,66.09,70.66,76.87,5.11,10.78,7.95,21.57,7.95,21.57,0,0-52.78,8.51-76.62,23.84-23.84,15.32-51.64,51.64-51.64,51.64,0,0-17.72-21.41-32.47-67.95-14.76-46.54-13.06-120.24,0-139.53Z"/>
            <path class="cls-7" d="M266.36,155.69c-37.46-37.46-62.89-43.78-68-41.51s-1.83,54.51,4.42,79.48,16.2,51.19,26.42,71.62c5.29,10.58,9.74,17.64,13.07,22.25,9.83-10.82,22.4-23.29,34.03-30.77,11.49-7.38,29.69-13.18,45.47-17.21-10.61-20.07-27.44-55.9-55.41-83.87Z"/>
          </g>
          <path class="cls-7" d="M208.67,322.55s14.72,18.19-8.1,51.72c-43.28,63.58-132.37,43.2-132.37,43.2l67.25,26.39s-5.96,8.51-28.09,20.86c-19.06,10.63-25.54,12.34-25.54,12.34,0,0,29.8,8.51,47.67,8.51s30.65-.85,30.65-.85c0,0-16.18,16.18-21.28,25.54-5.11,9.36-6.81,15.32-6.81,15.32,0,0,89.39-22.98,165.15,12.77,75.77,35.75,88.54,78.32,91.09,88.54s6.81,.85,6.81,.85c0,0,3.41-140.47-19.58-204.31-22.98-63.85-55.34-138.77-82.58-141.32s-84.28,40.44-84.28,40.44Z"/>
          <g>
            <circle class="cls-9" cx="285.14" cy="428.14" r="23.12"/>
            <circle class="cls-1" cx="285.14" cy="428.14" r="7.27"/>
          </g>
          <ellipse class="cls-9" cx="399.93" cy="634.13" rx="24.69" ry="28.52"/>
        </g>
        <g>
          <g>
            <path class="cls-3" d="M607.82,100.88s-37.86,.64-82.13,33.56c-44.27,32.92-65.56,66.09-70.66,76.87-5.11,10.78-7.95,21.57-7.95,21.57,0,0,52.78,8.51,76.62,23.84,23.84,15.32,51.64,51.64,51.64,51.64,0,0,17.72-21.41,32.47-67.95,14.76-46.54,13.06-120.24,0-139.53Z"/>
            <path class="cls-7" d="M533.63,155.63c37.46-37.46,62.89-43.78,68-41.51s1.83,54.51-4.42,79.48c-6.24,24.97-16.2,51.19-26.42,71.62-5.29,10.58-9.74,17.64-13.07,22.25-9.83-10.82-22.4-23.29-34.03-30.77-11.49-7.38-29.69-13.18-45.47-17.21,10.61-20.07,27.44-55.9,55.41-83.87Z"/>
          </g>
          <path class="cls-7" d="M591.33,322.49s-14.72,18.19,8.1,51.72c43.28,63.58,132.37,43.2,132.37,43.2l-67.25,26.39s5.96,8.51,28.09,20.86c19.06,10.63,25.54,12.34,25.54,12.34,0,0-29.8,8.51-47.67,8.51s-30.65-.85-30.65-.85c0,0,16.18,16.18,21.28,25.54s6.81,15.32,6.81,15.32c0,0-89.39-22.98-165.15,12.77-75.76,35.75-88.54,78.32-91.09,88.54-2.55,10.22-6.81,.85-6.81,.85,0,0-3.41-140.47,19.58-204.31,22.98-63.85,55.34-138.77,82.58-141.32,27.24-2.55,84.28,40.44,84.28,40.44Z"/>
          <g>
            <circle class="cls-9" cx="514.85" cy="428.08" r="23.12"/>
            <circle class="cls-1" cx="514.85" cy="428.08" r="7.27"/>
          </g>
          <path class="cls-4" d="M547.32,254.1c-55.76-50.02-239.13-49.75-294.65,.05-59.18,53.08-77.72,146.6-77.72,146.6,0,0,52.21-43.17,96.26-37.09,51.22,7.06,76.49,24.65,90.96,93.61,14.47,68.95,25.26,178.13,25.26,178.13h15.8v-.05h9.31s10.79-109.17,25.26-178.13c14.47-68.96,39.74-86.55,90.96-93.61,44.05-6.08,96.26,37.09,96.26,37.09,0,0-18.53-93.52-77.71-146.6Z"/>
          <ellipse class="cls-9" cx="400.07" cy="634.07" rx="24.69" ry="28.52"/>
        </g>
      </g>
      <path class="cls-2" d="M396.74,216.78c-16.3,.13-32.56,1.16-48.13,3.15-1.04-2.71-2.24-5.62-3.63-8.56-5.11-10.78-26.4-43.96-70.66-76.87-44.27-32.91-82.13-33.56-82.13-33.56-13.05,19.3-14.76,93,0,139.54,8.67,27.34,18.33,45.94,24.85,56.69-29.06,45.81-40.42,95.83-41.89,102.74-45.61,31.55-106.94,17.56-106.94,17.56l67.25,26.39s-5.96,8.51-28.09,20.86c-19.06,10.63-25.54,12.34-25.54,12.34,0,0,29.8,8.51,47.67,8.51s30.65-.85,30.65-.85c0,0-16.18,16.18-21.28,25.54-5.11,9.36-6.81,15.32-6.81,15.32,0,0,72.44-18.6,142.16,3.76,.58,5.3,.84,10.58-.29,15.17-3.65,14.84-10.68,30.89-17.06,44.64-13.16,28.36-32.22,53.61-44.67,82.33-11.44,26.39-17.7,54.65-17.67,83.27,.02,14.78-2.31,31.98,.93,46.43,4.62,20.58,28.55,31.16,46.73,38.65,14.23,5.87,28.73,11.91,43.42,17.3,.65,28.17,6.18,56.31,26.93,67.99,18.93,10.66,48.36,13.19,69.4,10.19,5.49-.78,10.38-2.01,14.8-3.61V216.78h0Z"/>
    </g>
  </g>
</svg>