<?xml version="1.0" encoding="UTF-8"?>
<svg id="Layer_1" data-name="Layer 1" xmlns="http://www.w3.org/2000/svg" xmlns:xlink="http://www.w3.org/1999/xlink" viewBox="0 0 800 800">
  <defs>
    <style>
      .cls-1 {
        fill: #c9c0c4;
      }

      .cls-2, .cls-3 {
        fill: #fff;
      }

      .cls-4 {
        fill: #d9d2d5;
      }

      .cls-5 {
        fill: #e0dbdd;
      }

      .cls-6 {
        clip-path: url(#clippath-2);
      }

      .cls-7 {
        fill: #e38383;
      }

      .cls-8 {
        clip-path: url(#clippath-1);
      }

      .cls-9 {
        fill: #f0bbbb;
      }

      .cls-10 {
        fill: #ff6470;
      }

      .cls-11 {
        clip-path: url(#clippath);
      }

      .cls-12 {
        fill: none;
      }

      .cls-13 {
        fill: #231f20;
      }

      .cls-3 {
        isolation: isolate;
        opacity: .2;
      }

      .cls-14 {
        fill: #beb3b8;
      }
    </style>
    <clipPath id="clippath">
      <circle class="cls-12" cx="400" cy="400" r="400"/>
    </clipPath>
    <clipPath id="clippath-1">
      <path class="cls-12" d="M367.65,308.58c-19.7-40.96-45.67-88.17-79.73-121.48-16.93-16.56-64.08-52.36-89.71-47.74-26.37,4.75,10.95,64.94,19.16,81.11,19.02,37.45,40.92,71.72,69.15,102.49,11.51,12.55,22.46,35.03,39.37,23.83,10.51-6.95,29.57-27.35,41.76-38.21Z"/>
    </clipPath>
    <clipPath id="clippath-2">
      <path class="cls-12" d="M425.9,308.58c19.7-40.96,45.67-88.17,79.73-121.48,16.93-16.56,64.08-52.36,89.71-47.74,26.37,4.75-10.95,64.94-19.16,81.11-19.02,37.45-40.92,71.72-69.15,102.49-11.51,12.55-22.46,35.03-39.37,23.83-10.51-6.95-29.57-27.35-41.76-38.21Z"/>
    </clipPath>
  </defs>
  <circle class="cls-10" cx="400" cy="400" r="400"/>
  <circle class="cls-10" cx="400" cy="400" r="400"/>
  <g class="cls-11">
    <g>
      <g>
        <path class="cls-14" d="M627.83,699.12c-3.94-27.71-8.05-53.06-19.52-79.66-12.61-29.22-37.02-86.33-66.58-99.58-20.74,12.17-46.04,14.22-69.05,21.12-20.94,6.28-58.26,11.69-75.9,29.52-17.64-17.83-54.96-23.24-75.9-29.52-23.01-6.9-48.31-8.95-69.05-21.12-29.57,13.25-53.98,70.35-66.58,99.58-11.47,26.59-15.57,51.94-19.52,79.66-2.69,18.89-13.12,50.31,3.02,65.47,14.81,13.91,35.36,44.35,54,46.54,25.77,3.03,34.74,36.91,60.68,38.32,30.26,1.65,82.58,8.78,111.78,6.39,29.2,2.39,78.33-4.74,108.58-6.39,25.94-1.42,60.46-16.13,86.23-19.16,18.64-2.19,33.09-27.6,47.91-41.52,16.13-15.16-7.41-70.76-10.1-89.65Z"/>
        <g>
          <path class="cls-5" d="M367.65,308.58c-19.7-40.96-45.67-88.17-79.73-121.48-16.93-16.56-64.08-52.36-89.71-47.74-26.37,4.75,10.95,64.94,19.16,81.11,19.02,37.45,40.92,71.72,69.15,102.49,11.51,12.55,22.46,35.03,39.37,23.83,10.51-6.95,29.57-27.35,41.76-38.21Z"/>
          <g class="cls-8">
            <path class="cls-9" d="M176.44,166.03c50.9,16.59,95.22,64.08,116.92,111.54,8.67,18.96,15.03,37.89,15.39,58.46,.18,10.72-.53,23.07-8,31.54-19.84,22.48-40.2-14.41-52.29-29.45-27.46-34.16-44.95-73.43-63.43-112.68-7.44-15.8-19.11-42.11-8.59-59.42Z"/>
          </g>
        </g>
        <path class="cls-1" d="M471.78,566.6c-2.1-11.79-9.18-22.42-15.72-32.16-9.71-14.44-35.52-62.13-56.84-51.79-.88,.43-1.67,.96-2.44,1.51-.77-.55-1.56-1.08-2.44-1.51-21.31-10.35-47.13,37.35-56.84,51.79-6.55,9.74-13.63,20.37-15.72,32.16-.98,5.5,.56,11.22-2.26,14.31,3.52,12.56,24.55,22.77,36.13,25.41,8.49,1.93,28.71,5.96,41.13,5.96s32.65-4.03,41.13-5.96c11.58-2.64,32.6-12.85,36.13-25.41-2.81-3.09-1.27-8.8-2.25-14.31Z"/>
        <path class="cls-2" d="M374.97,527.09c-2.13,10.9-4.85,21.82-6.94,32.76-1.61,8.43-3.98,18.71-.3,26.79,1.99,4.36,3.22,5.38,7.99,5.75,3.3,.25,6.62,.31,9.9,.61,2.95,.27,6.38,1.38,8.66-.87,3.78-3.73,3.43-12.29,3.83-17.16,1.08-13.13,.62-26.36,1.4-39.5,.32-5.43,.35-10.54-6.07-12.4-5.4-1.56-14.76-1.26-18.48,4.03Z"/>
        <path class="cls-2" d="M397.28,525.18c0,7.04,1.01,13.95,1.09,20.95,.07,6.19,.04,12.17,1.09,18.29,.78,4.56,1.42,9.12,2.17,13.68,.42,2.53,.6,6.41,2.39,8.37,3.07,3.36,11.1,2.06,14.89,.98,3.55-1.01,6.09-2.21,6.93-5.66,1.07-4.42,.18-8.95-.25-13.37-.59-5.99-1.55-12-2.75-17.87-1.2-5.87-2.32-11.79-4.14-17.51-.83-2.61-1.84-6.06-4.07-7.88-3.58-2.93-12.43-3.28-17.35,.02Z"/>
        <g>
          <path class="cls-5" d="M425.9,308.58c19.7-40.96,45.67-88.17,79.73-121.48,16.93-16.56,64.08-52.36,89.71-47.74,26.37,4.75-10.95,64.94-19.16,81.11-19.02,37.45-40.92,71.72-69.15,102.49-11.51,12.55-22.46,35.03-39.37,23.83-10.51-6.95-29.57-27.35-41.76-38.21Z"/>
          <g class="cls-6">
            <path class="cls-9" d="M617.11,166.03c-50.9,16.59-95.22,64.08-116.92,111.54-8.67,18.96-15.03,37.89-15.39,58.46-.18,10.72,.53,23.07,8,31.54,19.84,22.48,40.2-14.41,52.29-29.45,27.46-34.16,44.95-73.43,63.43-112.68,7.44-15.8,19.11-42.11,8.59-59.42Z"/>
          </g>
        </g>
        <path class="cls-4" d="M557.86,482.01c-8.63-25.27-29.7-41.88-46.21-62.88-17.85-22.71-11.01-54.82-24.71-79.68-9.46-17.18-22.41-34.94-40.6-42.87-13.76-6-28-8.08-42.67-8.73-.02-.09-.03-.19-.05-.27-2.29,0-4.57,.02-6.84,.06-2.27-.04-4.55-.06-6.84-.06-.02,.09-.03,.19-.05,.27-14.67,.65-28.91,2.72-42.67,8.73-18.19,7.94-31.13,25.69-40.6,42.87-13.69,24.87-5.13,57.73-22.98,80.44-16.51,20.99-36.83,34.57-45.45,59.85-7.72,22.64-8.88,52.46,5.3,71.97,16.12,22.18,40.24,35.86,66.04,38.66,43.65,4.74,74.88-24.8,87.26-62.51,12.39,37.71,43.62,67.25,87.26,62.51,25.8-2.8,48.6-18,64.73-40.18,14.17-19.5,16.81-45.55,9.08-68.18Z"/>
        <g>
          <circle class="cls-13" cx="332.75" cy="411.63" r="19.58"/>
          <circle class="cls-2" cx="332.75" cy="411.63" r="6.16"/>
        </g>
        <g>
          <circle class="cls-13" cx="458.26" cy="411.63" r="19.58"/>
          <circle class="cls-2" cx="458.26" cy="411.63" r="6.16"/>
        </g>
        <path class="cls-7" d="M397.21,509.11c-.11-6.07-6.85-10.81-11.29-13.79-2.97-1.99-6.34-3.17-9.17-5.39-1.64-1.29-5.51-4.99-4.48-7.3,1.6-3.59,11.92-2.5,14.87-2.5,6.38,0,12.89-.37,19.2-.13,3.77,.14,19.03-1.59,16.06,6.02-2.58,6.62-12.91,9.07-18.1,12.97-2.24,1.69-4.4,3.63-5.55,6.21-.71,1.61-.57,4.09-1.54,3.91Z"/>
      </g>
      <path class="cls-3" d="M404.79,287.92c-.38-.02-.74-.05-1.12-.07-.02-.09-.03-.19-.05-.27-2.29,0-4.57,.02-6.84,.06-2.27-.04-4.55-.06-6.84-.06-.02,.09-.03,.19-.05,.27-10.32,.46-20.42,1.65-30.29,4.39-18.58-36.73-42.07-76.18-71.67-105.14-16.93-16.56-64.08-52.36-89.71-47.74-12.53,2.26-10.67,17.05-4.39,33.68,2.57,8.54,22.08,43.94,29.52,59.74,18.48,39.24,63.77,92.51,80.84,111.68-8.08,19.76-5.69,57.19-20.56,75.44-16.86,20.7-36.83,34.57-45.45,59.85-5.48,16.06-7.62,35.73-3.35,52.78-21.82,22.32-39.49,63.55-49.58,86.95-11.47,26.59-15.57,51.94-19.52,79.66-2.69,18.89-13.12,50.31,3.02,65.47,14.81,13.91,35.36,44.35,54,46.54,25.77,3.03,34.74,36.91,60.68,38.32,30.26,1.65,82.58,8.78,111.78,6.39,2.98,.25,6.22,.37,9.58,.43V287.92h0Z"/>
    </g>
  </g>
</svg>